# xmcd CD database file
#
# Track frame offsets:
#	150
#	26525
#	38562
#	65200
#	79250
#	93827
#	107300
#	133170
#	154984
#	179680
#	192020
#	218850
#	247650
#	265952
#	280712
#
# Disc length: 4119 seconds
#
# Revision: 0
# Processed by: cddbd v1.5PL3 Copyright (c) Steve Scherf et al.
# Submitted via: CDex 1.51
#
DISCID=cb10150f
DTITLE=Time Life - Essential Jazz
DYEAR=1945
DGENRE=Jazz
TTITLE0=Desafinado
TTITLE1=The Seventh Son
TTITLE2=Cheek to Cheek
TTITLE3=Sophisticated Lady
TTITLE4=Don't Get Around Much Anymore
TTITLE5=Satin Doll
TTITLE6=Goodbye Pork Pie Hat
TTITLE7=Embraceable You
TTITLE8=Cantaloupe Island
TTITLE9=My Favorite Things
TTITLE10=Walk on the Wild Side
TTITLE11=Body and Soul
TTITLE12=It Never Entered My Mind
TTITLE13=Round Midnight
TTITLE14=Blue Monk
EXTD=YEAR: 1945
EXTT0=
EXTT1=
EXTT2=
EXTT3=
EXTT4=
EXTT5=
EXTT6=
EXTT7=
EXTT8=
EXTT9=
EXTT10=
EXTT11=
EXTT12=
EXTT13=
EXTT14=
PLAYORDER=
